/* XPM */ 
static char * root_xpm[] = {
"16 16 13 1",
" 	c None",
"!	c black",
"#	c #808000",
"$	c white",
"%	c #FFFF80",
"&	c #C0C040",
"'	c #FFC080",
"(	c #606000",
")	c #202000",
"*	c #808040",
"+	c #C0C080",
",	c #806040",
"-	c #C08040",
"                ",
"                ",
"   #####!       ",
"  #$$$%%#!      ",
" #&&&&&&&###### ",
" #$$$$$$$$$$$%&!",
" #$%%'(%%%%%%'&!",
" #$%%%()%%'%'%&!",
" #$%%%%!*%%'%'&!",
" #$%%%%&!+'%'%&!",
" #$%%%%%()%'%'&!",
" #$%%%'%'!,%''&!",
" #$'%'%'%-)'''&!",
" #&&&&&&&&&&&&&!",
"  !!!!!!!!!!!!!!",
"                "};

