/* XPM */ 
static char * parent_xpm[] = {
"16 16 7 1",
" 	c None",
"!	c black",
"#	c #808000",
"$	c white",
"%	c #FFFF80",
"&	c #C0C040",
"'	c #FFC080",
"                ",
"                ",
"   #####!       ",
"  #$$$%%#!      ",
" #&&&&&&&###### ",
" #$$$$$$$$$$$%&!",
" #$%%&!&%%%%%'&!",
" #$%&!!!&%'%'%&!",
" #$&!!!!!&%'%'&!",
" #$%%%!%'%'%'%&!",
" #$%%%!%%'%'%'&!",
" #$%%%!!!!!%''&!",
" #$'%'%'%'%'''&!",
" #&&&&&&&&&&&&&!",
"  !!!!!!!!!!!!!!",
"                "};

