/* XPM */
static char * right_arrow_xpm[] = {
"16 16 3 1",
" 	c None",
"!	c #C0C0C0",
"#	c black",
"                ",
"        #       ",
"        ##      ",
"        # #     ",
"        #  #    ",
" ########   #   ",
" #           #  ",
" #            # ",
" #           #  ",
" #          #   ",
" ########  #    ",
"        # #     ",
"        ##      ",
"        #       ",
"                ",
"                "};

